# xmcd
#
# Track frame offsets:
#	150
#	19895
#	41467
#	73065
#	85685
#	101882
#	120250
#	154980
#	181742
#	195150
#
# Disc length: 2811 seconds
#
# Revision: 0
# Processed by: cddbd v1.5.1PL0 Copyright (c) Steve Scherf et al.
# Submitted via: audiograbber 1.83.01
#
DISCID=750af90a
DTITLE=Various Artist - for relax（Kuturogi）
DYEAR=1900
DGENRE=
TTITLE0=ショパン - "Chason de l'adieu"
TTITLE1=ブラームス - Intermezzo op.117-1
TTITLE2=チャイコフスキー - Andante cantabile
TTITLE3=オッフェンバック - "Tales of hoffmann"
TTITLE4=パタジェスカ - The maiden's prayer
TTITLE5=チェイコフスキー - String serenade-waltz
TTITLE6=バッハ - Brandenburg No.4-1st
TTITLE7=モーツァルト - Eine kleine Nachtmusik
TTITLE8=エルガー - Salutd'amour
TTITLE9=クライスラー - Liebesleid
EXTD=
EXTT0=
EXTT1=
EXTT2=
EXTT3=
EXTT4=
EXTT5=
EXTT6=
EXTT7=
EXTT8=
EXTT9=
PLAYORDER=
